<svg version="1.2" xmlns="http://www.w3.org/2000/svg" viewBox="0 0 927 786" width="927" height="786">
	<title>illustration-svg</title>
	<style>
		.s0 { fill: #3f3d56 } 
		.s1 { fill: #8b0000 } 
		.s2 { fill: #ff6584 } 
		.s3 { fill: #f0f0f0 } 
		.s4 { fill: none } 
		.s5 { fill: #e4e4e4 } 
		.s6 { opacity: .3;fill: #f0f0f0 } 
		.s7 { fill: #ffb6b6 } 
		.s8 { fill: #2f2e41 } 
		.s9 { fill: #f2f2f2 } 
		.s10 { opacity: .1;fill: #000000 } 
	</style>
	<path id="Layer" class="s0" d="m894.2 329.1c-46.3 59.2-133.8 72.8-206.1 52.1q-8.9-2.5-17.6-5.6-8.7-3.1-17.3-6.7-8.5-3.5-16.8-7.5-8.3-4-16.4-8.5c-12.6-6.8-24.8-14.3-36.8-22.2q-4.4-3-8.8-6-3-2-6-4.1c-24.7-17.4-48.5-36.6-71.9-55.6-58.4-47.4-118.4-96.3-190.1-118.9-14.8-4.7-33.9-6.8-43.1 5.7-7.9 10.8-3.1 26.2 3.7 37.9 24.8 43.2 70 70.5 115.2 91.4 45.3 21 93.2 38 132.5 68.6 39.3 30.7 69.3 79.4 61.3 128.6-7 42.4-41.6 76.9-81.8 91.9-40.3 15-85.1 12.9-127 3.1-41.8-9.7-81.5-26.7-121.9-41.4-24.3-8.8-56.1-15-72.3 5.3-13.6 17.1-5.8 44.1 10.8 58.3 16.6 14.3 39.1 19 60.6 23.3q99.9 20 199.8 39.9c20.4 4.1 41.3 8.3 59.1 19.2 17.8 10.8 32.2 29.7 31.6 50.6-0.5 20.5-15.5 38.6-33.9 47.7-18.4 9.1-39.7 10.5-60.2 9.5-76.9-3.7-297.2-125.8-350.1-141.4-33.9-10-71-24.7-85.4-57.1-17.8-40.3 11.5-89.1 51.6-107.5 40-18.4 86.5-14.3 130.1-8.1 43.6 6.2 88.7 14.1 131.2 2.3 42.5-11.8 81.4-50.2 77.2-94.1-3.6-38.2-38-66.9-74.2-79.6-28.4-9.9-58.5-12.6-88.3-17.1-8.2-1.2-16.4-2.6-24.6-4.3q-7.8-1.7-15.5-3.7-7.8-2-15.4-4.5-7.6-2.4-15.1-5.3-7.4-2.8-14.7-6-7.7-3.4-15.2-7.2-7.5-3.7-14.8-7.9-7.2-4.2-14.3-8.7-7-4.6-13.8-9.5-5.4-3.9-10.6-8.1-5.3-4.2-10.3-8.5-5.1-4.4-9.9-9-4.9-4.6-9.5-9.4-2.8-3-5.6-6-2.7-3-5.2-6c-22.1-26.5-38.5-59-33.6-92.6 4.9-33.4 31-61.3 62-74.6 18-7.8 37.3-11.2 56.9-11.7q5.4-0.1 10.7 0 5.4 0.1 10.8 0.5 5.3 0.4 10.7 1 5.3 0.7 10.6 1.5c65.4 10.5 125.3 42.3 181.9 76.7 56.6 34.4 111.8 72.2 173.3 96.7 61.6 24.5 131.6 34.9 194 12.7 62.4-22.1 113.7-82.7 110.7-148.8 41.4 35.6 76.6 80.4 92.1 132.8 15.6 52.4 9.4 112.8-24.3 155.9z"/>
	<path id="Layer" class="s1" d="m595.9 260.7c-4 0-7.3-3.3-7.3-7.3 0-4 3.3-7.3 7.3-7.3 4 0 7.3 3.3 7.3 7.3 0 4-3.3 7.3-7.3 7.3z"/>
	<path id="Layer" class="s2" d="m852.9 168.6c-6.2 0-11.2-5-11.2-11.2 0-6.2 5-11.3 11.2-11.3 6.2 0 11.3 5.1 11.3 11.3 0 6.2-5.1 11.2-11.3 11.2z"/>
	<path id="Layer" class="s2" d="m114.9 515.6c-2.3 0-4.1-1.9-4.1-4.2 0-2.3 1.8-4.2 4.1-4.2 2.3 0 4.2 1.9 4.2 4.2 0 2.3-1.9 4.2-4.2 4.2z"/>
	<path id="Layer" class="s2" d="m234.2 272.4q0 1.3 0 2.7-0.1 1.3-0.3 2.7-0.1 1.3-0.4 2.7-0.2 1.3-0.6 2.6c-8.2-1.2-16.4-2.6-24.6-4.3q-7.8-1.7-15.5-3.7-7.8-2-15.4-4.5-7.6-2.4-15.1-5.3-7.4-2.8-14.7-6c3.1-10.1 9.8-18.8 18.7-24.5 9-5.6 19.7-7.8 30.2-6.2 10.5 1.6 20.1 6.8 27 14.9 6.9 8 10.7 18.3 10.7 28.9z"/>
	<path id="Layer" class="s3" d="m780.9 234.6c-2.3 0-4.2-1.9-4.2-4.2 0-2.4 1.9-4.3 4.2-4.3 2.4 0 4.3 1.9 4.3 4.3 0 2.3-1.9 4.2-4.3 4.2z"/>
	<path id="Layer" class="s3" d="m391.9 702.6c-2.3 0-4.2-1.9-4.2-4.2 0-2.4 1.9-4.3 4.2-4.3 2.4 0 4.3 1.9 4.3 4.3 0 2.3-1.9 4.2-4.3 4.2z"/>
	<path id="Layer" class="s3" d="m452.9 761.6c-2.3 0-4.2-1.9-4.2-4.2 0-2.4 1.9-4.3 4.2-4.3 2.4 0 4.3 1.9 4.3 4.3 0 2.3-1.9 4.2-4.3 4.2z"/>
	<path id="Layer" class="s3" d="m75.9 593.6c-2.3 0-4.2-1.9-4.2-4.2 0-2.4 1.9-4.3 4.2-4.3 2.4 0 4.3 1.9 4.3 4.3 0 2.3-1.9 4.2-4.3 4.2z"/>
	<path id="Layer" class="s3" d="m284.9 514.6c-2.3 0-4.2-1.9-4.2-4.2 0-2.4 1.9-4.3 4.2-4.3 2.4 0 4.3 1.9 4.3 4.3 0 2.3-1.9 4.2-4.3 4.2z"/>
	<path id="Layer" class="s3" d="m263.9 92.6c-2.3 0-4.2-1.9-4.2-4.2 0-2.4 1.9-4.3 4.2-4.3 2.4 0 4.3 1.9 4.3 4.3 0 2.3-1.9 4.2-4.3 4.2z"/>
	<path id="Layer" class="s3" d="m520.9 425.6c-2.3 0-4.2-1.9-4.2-4.2 0-2.4 1.9-4.3 4.2-4.3 2.4 0 4.3 1.9 4.3 4.3 0 2.3-1.9 4.2-4.3 4.2z"/>
	<path id="Layer" class="s3" d="m552.9 499.6c-2.3 0-4.2-1.9-4.2-4.2 0-2.4 1.9-4.3 4.2-4.3 2.4 0 4.3 1.9 4.3 4.3 0 2.3-1.9 4.2-4.3 4.2z"/>
	<path id="Layer" fill-rule="evenodd" class="s4" d="m154.8 163.7q9.1-2.7 17.4-5.9c34-13.1 53.4-30.9 53.4-48.8 0-17.9-19.4-35.7-53.4-48.9q-5-1.9-10.4-3.7c3.1 8.7 5.3 17.7 6.6 26.8 1.2 9.2 1.6 18.4 1 27.6-0.6 9.2-2.2 18.3-4.6 27.2-2.4 8.9-5.8 17.5-10 25.7z"/>
	<path id="Layer" class="s1" d="m169.6 102q0.1 8-0.9 16-0.9 7.9-2.8 15.7-1.9 7.8-4.6 15.4-2.8 7.5-6.5 14.6-1.9 3.8-4.1 7.5-5.3 9-11.9 17-6.7 8.1-14.4 15.1-7.8 7-16.6 12.7-8.8 5.7-18.3 10-5.4-3.9-10.6-8.1-5.3-4.2-10.3-8.5-5.1-4.4-9.9-9-4.9-4.6-9.5-9.4-2.8-3-5.6-6-2.7-3-5.2-6c-22.1-26.5-38.5-59-33.6-92.6 4.9-33.4 31-61.3 62-74.6 18-7.8 37.3-11.2 56.9-11.7q5.7 5 10.9 10.7 5.1 5.7 9.5 11.9 4.5 6.2 8.2 12.8 3.8 6.7 6.7 13.7 1.5 3.6 2.8 7.2 2 5.5 3.4 11.1 1.5 5.6 2.5 11.4 1 5.7 1.5 11.5 0.4 5.8 0.4 11.6z"/>
	<path id="Layer" class="s5" d="m231.6 109c0 20.8-20.3 40.1-57.2 54.4-7.4 2.8-15.3 5.4-23.7 7.8-31.1 8.6-68.2 13.4-107.1 13.8q-2.7-3-5.2-6 0.6 0 1.2 0c42.4 0 82.5-5.4 115.2-15.3q9.1-2.7 17.4-5.9c34-13.1 53.4-30.9 53.4-48.8 0-17.9-19.4-35.7-53.4-48.9q-5-1.9-10.4-3.7-1.3-3.6-2.8-7.2 8 2.5 15.4 5.3c36.9 14.3 57.2 33.6 57.2 54.5z"/>
	<path id="Layer" class="s3" d="m45.9 34.6c-2.3 0-4.2-1.9-4.2-4.2 0-2.4 1.9-4.3 4.2-4.3 2.4 0 4.3 1.9 4.3 4.3 0 2.3-1.9 4.2-4.3 4.2z"/>
	<path id="Layer" class="s3" d="m134.9 61.6c-2.3 0-4.2-1.9-4.2-4.2 0-2.4 1.9-4.3 4.2-4.3 2.4 0 4.3 1.9 4.3 4.3 0 2.3-1.9 4.2-4.3 4.2z"/>
	<path id="Layer" class="s3" d="m88.9 141.7c-22.9 0-41.3-18.4-41.3-41.3 0-22.9 18.4-41.4 41.3-41.4 22.9 0 41.4 18.5 41.4 41.4 0 22.9-18.5 41.3-41.4 41.3z"/>
	<path id="Layer" class="s6" d="m852.5 319.2c-9.3 2.8-29.7 4.8-52.2 6-22.5 1.3-47.2 1.8-71.5 2.3q-64 1.4-128 2.8-8.7 0.2-17.6 0.4-4.4-3-8.8-6 7.8 0.1 15.6-0.1c22.2-0.4 41-2.2 62.4-3 32.9-1.3 68.4-0.3 102.7 0.3 34.3 0.5 73.3 0.3 97.4-2.7z"/>
	<path id="Layer" class="s6" d="m198.1 634.5l-135.9-113.3 132 117.8c0.5 0.9 1.4 1.4 2.4 1.5 1.1 0.1 2.1-0.3 2.7-1.1 0.7-0.7 0.9-1.8 0.7-2.8-0.3-0.9-1-1.8-1.9-2.1z"/>
	<path id="Layer" class="s3" d="m94.9 205.6c-2.3 0-4.2-1.9-4.2-4.2 0-2.4 1.9-4.3 4.2-4.3 2.4 0 4.3 1.9 4.3 4.3 0 2.3-1.9 4.2-4.3 4.2z"/>
	<path id="Layer" class="s7" d="m452 694.1h17.6l8.4-67.9h-26v67.9z"/>
	<path id="Layer" class="s8" d="m447.5 688.3h5l19.3-7.8 10.4 7.8c2.9 0 5.7 0.6 8.4 1.7 2.7 1.1 5.1 2.7 7.2 4.8 2 2 3.7 4.5 4.8 7.2 1.1 2.6 1.6 5.5 1.6 8.4v0.7h-56.7z"/>
	<path id="Layer" class="s7" d="m320.3 694.1h-17.6l-8.3-67.9h25.9v67.9z"/>
	<path id="Layer" class="s8" d="m324.8 711.1h-56.7v-0.7c0-2.9 0.6-5.8 1.7-8.4 1.1-2.7 2.7-5.2 4.8-7.2 2-2.1 4.4-3.7 7.1-4.8 2.7-1.1 5.6-1.7 8.5-1.7l10.3-7.8 19.3 7.8h5z"/>
	<path id="Layer" class="s1" d="m383.3 174.2l-17.8 13.5-47.3 12.6c0 0 17 118.9 9 126.9-8 8-0.8 8.3-2.4 18.6-1.6 10.4-8 37.9-8 37.9h141.1c0 0 1.2-17.1-5.8-20.8-6.9-3.7 6.4-20.9 0.8-23.8-5.7-2.9 2.3-27.9 2.3-27.9l17.3-81.8-46.1-36.1-7-16.9z"/>
	<path id="Layer" class="s9" d="m405.5 280.5c-3.4 0-6.1-2.8-6.1-6.2 0-3.4 2.7-6.1 6.1-6.1 3.5 0 6.2 2.7 6.2 6.1 0 3.4-2.7 6.2-6.2 6.2z"/>
	<path id="Layer" class="s8" d="m316.8 383.7l-5.9 149.9c0 0-25.1 110.7-20.7 113.6 4.3 2.9 6.2 20.3 6.2 20.3l24.7 2.9c0 0 0-11.6 5.8-16 5.9-4.4 59.7-209.6 59.7-209.6l52.6 198.4c0 0 1.3 11.2 5.6 11.2 4.4 0 5.9 16 5.9 16h24.7v-16c0 0 11.1-3.5 6.8-15.2-4.4-11.6-24.3-255.5-24.3-255.5z"/>
	<path id="Layer" class="s7" d="m401.8 165.3c-16.5 0-29.8-13.4-29.8-29.9 0-16.5 13.3-29.8 29.8-29.8 16.5 0 29.9 13.3 29.9 29.8 0 16.5-13.4 29.9-29.9 29.9z"/>
	<path id="Layer" class="s10" d="m452.9 269.4l5.8 4.4 2.9-20.4-8.7 16z"/>
	<path id="Layer" class="s1" d="m321 200.2c0 0-7.3-1.5-11.6 11.6-4.4 13.1-20.4 62.6-20.4 71.3 0 8.8 99.7 47.3 99.7 47.3l-10.4-36.4-45.7-24z"/>
	<path id="Layer" class="s7" d="m393.3 325c-9.4 0-17-7.6-17-17 0-9.4 7.6-17 17-17 9.4 0 17 7.6 17 17 0 9.4-7.6 17-17 17z"/>
	<path id="Layer" class="s10" d="m331.3 252l1.3 18 42.3 22.2-37.6-25.2-6-15z"/>
	<path id="Layer" class="s3" d="m432.8 254.6h-0.5v-15c0-1.2-0.2-2.3-0.7-3.4-0.4-1-1-2-1.9-2.8-0.8-0.8-1.7-1.4-2.8-1.9-1-0.4-2.2-0.6-3.3-0.6h-31.8c-1.1 0-2.3 0.2-3.3 0.6-1.1 0.5-2 1.1-2.8 1.9-0.8 0.8-1.5 1.8-1.9 2.8-0.5 1.1-0.7 2.2-0.7 3.4v82.3c0 1.1 0.2 2.3 0.7 3.3 0.4 1.1 1.1 2 1.9 2.8 0.8 0.8 1.7 1.5 2.8 1.9 1 0.5 2.2 0.7 3.3 0.7h31.8c1.1 0 2.3-0.2 3.3-0.7 1.1-0.4 2-1.1 2.8-1.9 0.9-0.8 1.5-1.7 1.9-2.8 0.5-1 0.7-2.2 0.7-3.3v-56.6h0.5z"/>
	<path id="Layer" class="s1" d="m472.5 229.4c0 0 4.4 2.9 7.3 16 2.9 13.1 21.8 62.6 14.5 74.2-7.2 11.7-9.4 24.1-34.1 6.6l-34.3-31.3 24.8-23.3 10.2 7.3z"/>
	<path id="Layer" class="s1" d="m408.1 267.6c-4 0-7.3-3.3-7.3-7.3 0-4 3.3-7.3 7.3-7.3 4 0 7.3 3.3 7.3 7.3 0 4-3.3 7.3-7.3 7.3z"/>
	<path id="Layer" class="s7" d="m429.2 293.2c-9.4 0-17-7.6-17-17 0-9.4 7.6-17 17-17 9.4 0 17 7.6 17 17 0 9.4-7.6 17-17 17z"/>
	<path id="Layer" class="s10" d="m330.5 306.4l48.8 21.6-50.1-9.8 1.3-11.8z"/>
	<path id="Layer" class="s8" d="m371.7 141.4l-4.1-15.6c-1.1-4.1-2.1-8.2-1.9-12.4 0.3-4.2 2-8.6 5.6-10.9 3.5-2.2 8.9-1.7 11.2 1.8 0.4-5.6 5.6-9.9 11-11.5 5.5-1.5 11.2-0.9 16.9-0.7 5.7 0.3 11.6 0.1 16.5-2.8q0.3 0.9 0.3 1.8 0 0.9-0.4 1.7-0.3 0.8-0.8 1.5-0.6 0.6-1.4 1.1 0.9 0.2 1.9 0.1 0.9-0.1 1.8-0.5 0.8-0.4 1.4-1.2 0.6-0.7 0.9-1.6 0 1.2-0.2 2.4-0.2 1.2-0.6 2.4-0.5 1.1-1.1 2.1-0.6 1.1-1.5 2 1.6-0.8 3.4-1 1.7-0.1 3.4 0.3 1.7 0.5 3.1 1.6 1.5 1 2.4 2.5c2.5 4.4 1.1 9.8-0.4 14.6l-7.5 24.4c-1.1-3.7-1.3-7.6-1.9-11.5-0.6-3.8-1.7-7.7-4.2-10.7-2.6-2.9-6.9-4.6-10.5-3.2-2 0.9-3.6 2.5-5.4 3.7-3.7 2.5-8.5 2.8-12.9 2.3-4.5-0.5-8.8-1.7-13.3-2.2-2.8-0.4-5.9-0.3-8 1.6q-0.5 0.5-1 1.2-0.4 0.6-0.8 1.3-0.3 0.7-0.6 1.4-0.2 0.8-0.3 1.5-0.4 1.6-0.6 3.1-0.3 1.6-0.5 3.2-0.1 1.5-0.1 3.1-0.1 1.6 0 3.2"/>
</svg>